<svg width="42" height="40" viewBox="0 0 42 40" fill="none" xmlns="http://www.w3.org/2000/svg">
<path d="M9.43295 38.2338L23.3435 30.1414H19.0029L9.052 34.8398L9.43295 38.2338Z" fill="#47403D"/>
<path d="M23.3434 30.1414V31.9077L9.43286 40V37.8759L23.3434 30.1414Z" fill="#28211F"/>
<path d="M0.209229 40H9.43289L23.8052 14.961L23.355 0L0.209229 40Z" fill="#28211F"/>
<path d="M23.2856 15.8615L23.3549 0L41.7907 31.9307H32.5324L23.2856 15.8615Z" fill="#47403D"/>
<path d="M23.355 0V3.22078L34.899 20.0058L23.355 0Z" fill="#28211F"/>
<path d="M23.3665 0V3.22078L11.8225 20.0058L23.3665 0Z" fill="#1D1714"/>
<path d="M20.6421 26.9553H23.2857V22.3954L20.6421 26.9553Z" fill="#47403D"/>
<path d="M23.2856 22.3954V26.9553H25.9177L23.2856 22.3954Z" fill="#28211F"/>
</svg>
