<svg width="32" height="31" viewBox="0 0 32 31" fill="none" xmlns="http://www.w3.org/2000/svg">
<g opacity="0.6">
<path d="M7.12653 29.1935L17.5594 23.1242H14.304L6.84082 26.648L7.12653 29.1935Z" fill="#47403D"/>
<path d="M17.5599 23.1242V24.4489L7.12695 30.5182V28.9251L17.5599 23.1242Z" fill="#28211F"/>
<path d="M0.208984 30.5182H7.12673L17.906 11.7389L17.5683 0.518158L0.208984 30.5182Z" fill="#28211F"/>
<path d="M17.5166 12.4143L17.5686 0.518158L31.3954 24.4662H24.4517L17.5166 12.4143Z" fill="#47403D"/>
<path d="M17.5684 0.518158V2.93374L26.2264 15.5225L17.5684 0.518158Z" fill="#28211F"/>
<path d="M17.577 0.518158V2.93374L8.91895 15.5225L17.577 0.518158Z" fill="#1D1714"/>
<path d="M15.5337 20.7346H17.5164V17.3147L15.5337 20.7346Z" fill="#47403D"/>
<path d="M17.5166 17.3147V20.7346H19.4906L17.5166 17.3147Z" fill="#28211F"/>
</g>
</svg>
