<svg width="42" height="41" viewBox="0 0 42 41" fill="none" xmlns="http://www.w3.org/2000/svg">
<path d="M9.24326 38.2474L23.1538 30.155H18.8132L8.8623 34.8534L9.24326 38.2474Z" fill="#F1F1F1"/>
<path d="M23.1537 30.155V31.9213L9.24316 40.0136V37.8895L23.1537 30.155Z" fill="white"/>
<path d="M0.0195312 40.0136H9.2432L23.6155 14.9747L23.1653 0.0136108L0.0195312 40.0136Z" fill="#F1F1F1"/>
<path d="M23.0959 15.8751L23.1652 0.0136108L41.601 31.9443H32.3427L23.0959 15.8751Z" fill="white"/>
<path d="M23.1653 0.0136108V3.23439L34.7093 20.0194L23.1653 0.0136108Z" fill="white"/>
<path d="M23.1768 0.0136108V3.23439L11.6328 20.0194L23.1768 0.0136108Z" fill="#F1F1F1"/>
<path d="M20.4524 26.9689H23.096V22.409L20.4524 26.9689Z" fill="#F1F1F1"/>
<path d="M23.0959 22.409V26.9689H25.728L23.0959 22.409Z" fill="white"/>
</svg>
