<svg width="15" height="14" viewBox="0 0 15 14" fill="none" xmlns="http://www.w3.org/2000/svg">
<path d="M12.1636 2.177H2.78857C2.01192 2.177 1.38232 2.8066 1.38232 3.58325V12.0208C1.38232 12.7974 2.01192 13.427 2.78857 13.427H12.1636C12.9402 13.427 13.5698 12.7974 13.5698 12.0208V3.58325C13.5698 2.8066 12.9402 2.177 12.1636 2.177Z" stroke="#888888" stroke-linejoin="round"/>
<path d="M8.64795 7.33325C9.03627 7.33325 9.35107 7.01845 9.35107 6.63013C9.35107 6.2418 9.03627 5.927 8.64795 5.927C8.25962 5.927 7.94482 6.2418 7.94482 6.63013C7.94482 7.01845 8.25962 7.33325 8.64795 7.33325Z" fill="#888888"/>
<path d="M10.9917 7.33325C11.38 7.33325 11.6948 7.01845 11.6948 6.63013C11.6948 6.2418 11.38 5.927 10.9917 5.927C10.6034 5.927 10.2886 6.2418 10.2886 6.63013C10.2886 7.01845 10.6034 7.33325 10.9917 7.33325Z" fill="#888888"/>
<path d="M8.64795 9.677C9.03627 9.677 9.35107 9.3622 9.35107 8.97388C9.35107 8.58555 9.03627 8.27075 8.64795 8.27075C8.25962 8.27075 7.94482 8.58555 7.94482 8.97388C7.94482 9.3622 8.25962 9.677 8.64795 9.677Z" fill="#888888"/>
<path d="M10.9917 9.677C11.38 9.677 11.6948 9.3622 11.6948 8.97388C11.6948 8.58555 11.38 8.27075 10.9917 8.27075C10.6034 8.27075 10.2886 8.58555 10.2886 8.97388C10.2886 9.3622 10.6034 9.677 10.9917 9.677Z" fill="#888888"/>
<path d="M3.96045 9.677C4.34877 9.677 4.66357 9.3622 4.66357 8.97388C4.66357 8.58555 4.34877 8.27075 3.96045 8.27075C3.57212 8.27075 3.25732 8.58555 3.25732 8.97388C3.25732 9.3622 3.57212 9.677 3.96045 9.677Z" fill="#888888"/>
<path d="M6.3042 9.677C6.69252 9.677 7.00732 9.3622 7.00732 8.97388C7.00732 8.58555 6.69252 8.27075 6.3042 8.27075C5.91587 8.27075 5.60107 8.58555 5.60107 8.97388C5.60107 9.3622 5.91587 9.677 6.3042 9.677Z" fill="#888888"/>
<path d="M3.96045 12.0208C4.34877 12.0208 4.66357 11.706 4.66357 11.3176C4.66357 10.9293 4.34877 10.6145 3.96045 10.6145C3.57212 10.6145 3.25732 10.9293 3.25732 11.3176C3.25732 11.706 3.57212 12.0208 3.96045 12.0208Z" fill="#888888"/>
<path d="M6.3042 12.0208C6.69252 12.0208 7.00732 11.706 7.00732 11.3176C7.00732 10.9293 6.69252 10.6145 6.3042 10.6145C5.91587 10.6145 5.60107 10.9293 5.60107 11.3176C5.60107 11.706 5.91587 12.0208 6.3042 12.0208Z" fill="#888888"/>
<path d="M8.64795 12.0208C9.03627 12.0208 9.35107 11.706 9.35107 11.3176C9.35107 10.9293 9.03627 10.6145 8.64795 10.6145C8.25962 10.6145 7.94482 10.9293 7.94482 11.3176C7.94482 11.706 8.25962 12.0208 8.64795 12.0208Z" fill="#888888"/>
<path d="M11.2261 1.2395V2.177M3.72607 1.2395V2.177V1.2395Z" stroke="#888888" stroke-linecap="round" stroke-linejoin="round"/>
<path d="M13.5698 4.52075H1.38232" stroke="#888888" stroke-linejoin="round"/>
</svg>
