<svg width="14" height="15" viewBox="0 0 14 15" fill="none" xmlns="http://www.w3.org/2000/svg">
<path d="M10.7984 4.7357C10.4106 4.7357 10.0963 4.42133 10.0963 4.03353C10.0963 3.64573 10.4106 3.33136 10.7984 3.33136C11.1862 3.33136 11.5006 3.64573 11.5006 4.03353C11.5006 4.42133 11.1862 4.7357 10.7984 4.7357Z" fill="#888888"/>
<path d="M0.285578 8.29566L7.45459 1.12665C7.54496 1.03444 7.65263 0.960956 7.77143 0.910403C7.89023 0.859849 8.01784 0.833217 8.14694 0.832031H13.0179C13.2784 0.832031 13.5282 0.935498 13.7124 1.11967C13.8965 1.30384 14 1.55363 14 1.81409V6.68509C13.9989 6.94513 13.8947 7.19411 13.7103 7.37744L6.54128 14.5465C6.45007 14.6378 6.34176 14.7102 6.22254 14.7596C6.10332 14.809 5.97553 14.8345 5.84647 14.8345C5.71742 14.8345 5.58962 14.809 5.4704 14.7596C5.35118 14.7102 5.24288 14.6378 5.15167 14.5465L0.290488 9.68527C0.198856 9.59439 0.126037 9.48634 0.0761938 9.36729C0.026351 9.24825 0.000462532 9.12054 6.67572e-06 8.99149C-0.000449181 8.86243 0.0245371 8.73455 0.0735378 8.61515C0.122539 8.49576 0.194591 8.38719 0.285578 8.29566ZM5.83911 13.8541L13.0179 6.68018V1.81409H8.14694L0.977927 8.99292L5.83911 13.8541Z" fill="#888888"/>
</svg>
